<svg aria-hidden="true" style="width:0;height:0;position:absolute;overflow:hidden" xmlns="http://www.w3.org/2000/svg"><defs><symbol id="icon-search" viewBox="0 0 32 32"><path fill="none" stroke="#fff" style="stroke:var(--color1,#fff)" stroke-linejoin="round" stroke-linecap="round" stroke-width="2.667" d="M14.667 25.333c5.891 0 10.667-4.776 10.667-10.667S20.558 3.999 14.667 3.999 4 8.775 4 14.666s4.776 10.667 10.667 10.667zM28 28.001l-5.8-5.8"/></symbol><symbol id="icon-film" viewBox="0 0 32 32"><path fill="none" stroke="#fff" style="stroke:var(--color1,#fff)" stroke-linejoin="round" stroke-linecap="round" stroke-width="2.667" d="M26.427 2.667H5.574a2.907 2.907 0 0 0-2.907 2.907v20.853a2.907 2.907 0 0 0 2.907 2.907h20.853a2.907 2.907 0 0 0 2.907-2.907V5.574a2.907 2.907 0 0 0-2.907-2.907zM9.333 2.667v26.667M22.667 2.667v26.667M2.667 16h26.667M2.667 9.333h6.667M2.667 22.667h6.667M22.667 22.667h6.667M22.667 9.333h6.667"/></symbol><symbol id="icon-favorite" viewBox="0 0 34 32"><path fill="#ff6b08" style="fill:var(--color2,#ff6b08)" d="m17.231 31.705-2.412-2.412C5.859 21.367.001 16.025.001 9.478.001 4.136 4.136.001 9.478.001c2.929 0 5.858 1.378 7.754 3.618 1.895-2.24 4.825-3.618 7.754-3.618 5.342 0 9.477 4.135 9.477 9.477 0 6.548-5.858 11.889-14.818 19.815l-2.412 2.412z"/></symbol><symbol id="icon-close" viewBox="0 0 32 32"><path stroke-width="2.133" d="m8.533 8.533 14.933 14.933M8.533 23.467 23.466 8.534"/></symbol><symbol id="icon-pen" viewBox="0 0 32 32"><path d="M31.818 9.122 22.879.183c-.292-.292-.676-.226-.855.146l-1.199 2.497 8.35 8.35 2.497-1.199c.372-.178.438-.563.146-.855zM19.231 4.231 11 4.917c-.547.068-1.002.184-1.159.899l-.001.002C7.608 16.539 0 27.001 0 27.001l1.793 1.793 8.5-8.5a3 3 0 1 1 1.414 1.414l-8.5 8.5L5 32.001s10.462-7.608 21.183-9.84l.002-.001c.714-.157.831-.612.898-1.159l.686-8.231-8.538-8.539z"/></symbol><symbol xmlns="http://www.w3.org/2000/svg" viewBox="0 0 32 32" id="svg-github"><path d="M16 .396c-8.839 0-16 7.167-16 16 0 7.073 4.584 13.068 10.937 15.183.803.151 1.093-.344 1.093-.772 0-.38-.009-1.385-.015-2.719-4.453.964-5.391-2.151-5.391-2.151-.729-1.844-1.781-2.339-1.781-2.339-1.448-.989.115-.968.115-.968 1.604.109 2.448 1.645 2.448 1.645 1.427 2.448 3.744 1.74 4.661 1.328.14-1.031.557-1.74 1.011-2.135-3.552-.401-7.287-1.776-7.287-7.907 0-1.751.62-3.177 1.645-4.297-.177-.401-.719-2.031.141-4.235 0 0 1.339-.427 4.4 1.641a15.436 15.436 0 0 1 4-.541c1.36.009 2.719.187 4 .541 3.043-2.068 4.381-1.641 4.381-1.641.859 2.204.317 3.833.161 4.235 1.015 1.12 1.635 2.547 1.635 4.297 0 6.145-3.74 7.5-7.296 7.891.556.479 1.077 1.464 1.077 2.959 0 2.14-.02 3.864-.02 4.385 0 .416.28.916 1.104.755 6.4-2.093 10.979-8.093 10.979-15.156 0-8.833-7.161-16-16-16z"/></symbol><symbol id="svg-linkedin" xmlns="http://www.w3.org/2000/svg" xmlns:xlink="http://www.w3.org/1999/xlink" xml:space="preserve" viewBox="0 0 45.959 45.959"><path d="M5.392.492C2.268.492 0 2.647 0 5.614c0 2.966 2.223 5.119 5.284 5.119 1.588 0 2.956-.515 3.957-1.489.96-.935 1.489-2.224 1.488-3.653C10.659 2.589 8.464.492 5.392.492zm2.455 7.319c-.62.603-1.507.922-2.563.922C3.351 8.733 2 7.451 2 5.614c0-1.867 1.363-3.122 3.392-3.122 1.983 0 3.293 1.235 3.338 3.123-.001.862-.314 1.641-.883 2.196zM.959 45.467h8.988V12.422H.959v33.045zm2-31.045h4.988v29.044H2.959V14.422zM33.648 12.422c-4.168 0-6.72 1.439-8.198 2.792l-.281-2.792H15v33.044h9.959V28.099c0-.748.303-2.301.493-2.711 1.203-2.591 2.826-2.591 5.284-2.591 2.831 0 5.223 2.655 5.223 5.797v16.874h10v-18.67c0-9.878-6.382-14.376-12.311-14.376zm10.311 31.045h-6V28.593c0-4.227-3.308-7.797-7.223-7.797-2.512 0-5.358 0-7.099 3.75-.359.775-.679 2.632-.679 3.553v15.368H17V14.422h6.36l.408 4.044h1.639l.293-.473c.667-1.074 2.776-3.572 7.948-3.572 4.966 0 10.311 3.872 10.311 12.374v16.672z"/></symbol><symbol id="icon-close" viewBox="0 0 19 17"><path d="M15 4.108 13.892 3 9.5 7.392 5.108 3 4 4.108 8.392 8.5 4 12.892 5.108 14 9.5 9.608 13.892 14 15 12.892 10.608 8.5 15 4.108Z"/></symbol></defs></svg>