<svg version="1.1" id="Layer_1" xmlns="http://www.w3.org/2000/svg" x="0" y="0" viewBox="0 0 285.5 285.5" style="enable-background:new 0 0 285.5 285.5" xml:space="preserve"><path fill="#fff" id="XMLID_792_" d="M142.75 125.5c34.601 0 62.751-28.149 62.751-62.75S177.351 0 142.75 0 79.999 28.149 79.999 62.75s28.15 62.75 62.751 62.75zm0-95.5c18.059 0 32.751 14.691 32.751 32.75S160.809 95.5 142.75 95.5s-32.751-14.691-32.751-32.75S124.691 30 142.75 30z"/><path fill="#fff" id="XMLID_795_" d="M142.75 155.5c-63.411 0-115 51.589-115 115 0 8.284 6.716 15 15 15h200c8.284 0 15-6.716 15-15 0-63.411-51.589-115-115-115zm-83.675 100c7.106-39.739 41.923-70 83.675-70s76.569 30.261 83.675 70H59.075z"/></svg>